<svg width="39" height="39" viewBox="0 0 39 39" xmlns="http://www.w3.org/2000/svg" xmlns:xlink="http://www.w3.org/1999/xlink">
    <defs>
        <path id="a" d="M0 0h39v39H0z"/>
    </defs>
    <g fill="none" fill-rule="evenodd">
        <g>
            <mask id="b" fill="#fff">
                <use xlink:href="#a"/>
            </mask>
            <path d="M38.373 14.728C36.227 5.758 27.87-.41 18.631.02 13.649.254 9.345 2.125 5.804 5.637 1.873 9.536.003 14.32 0 19.847c-.002 6.206 0 12.411 0 18.617v.521h.582c3.905 0 7.81.004 11.715-.001 2.686-.003 5.376.06 8.06-.045 5.034-.196 9.408-2.087 12.915-5.697 5.055-5.202 6.79-11.45 5.1-18.514" fill="#FF4461" mask="url(#b)"/>
        </g>
        <path d="M23.878 28.182v1.466H15.32v-1.466h.97c.533-.003.595-.064.595-.619.002-1.885 0-3.77 0-5.655 0-1.12.003-2.24 0-3.36-.002-.54-.078-.614-.608-.618-.306-.002-.613 0-.946 0v-1.415h6.886V27.458c0 .678.048.724.712.724h.948M19.49 15.52c-1.627-.006-2.979-1.37-2.975-3A2.98 2.98 0 0 1 19.51 9.55c1.656.008 2.992 1.35 2.975 2.988-.018 1.646-1.366 2.987-2.995 2.981" fill="#FFF"/>
    </g>
</svg>
