<svg width="84" height="84" viewBox="0 0 84 84" xmlns="http://www.w3.org/2000/svg">
    <defs>
        <filter x="-8.3%" y="-8.3%" width="116.7%" height="116.7%" filterUnits="objectBoundingBox" id="cxcafva4ya">
            <feGaussianBlur stdDeviation="2" in="SourceGraphic"/>
        </filter>
    </defs>
    <g transform="translate(6 6)" fill="none" fill-rule="evenodd">
        <circle fill="#CCC3E9" filter="url(#cxcafva4ya)" cx="36" cy="36" r="36"/>
        <circle fill="#A18DE5" cx="36" cy="38" r="30"/>
        <circle fill="#FFF" cx="36" cy="36" r="30"/>
        <path d="M37.353 24.28c-.001-.779.02-1.666-.806-2.035-.878-.393-1.509.26-2.08.839-2.31 2.342-4.622 4.682-6.91 7.047-.443.458-.912.69-1.546.679a176.611 176.611 0 0 0-4.81-.027c-1.663.018-2.203.564-2.201 2.237.004 2.784.03 5.569.065 8.352.02 1.655.464 2.105 2.11 2.12 1.522.012 3.047.002 4.569-.041.81-.023 1.43.27 1.986.842a1134.6 1134.6 0 0 0 6.628 6.758c.299.302.624.592.98.82.81.517 1.545.282 1.839-.629.151-.47.17-1 .171-1.503.013-4.203.007-8.406.008-12.609.001-4.283.005-8.566-.003-12.85m5.41-3.528c.363-.601.86-.95 1.607-.631 2.597 1.109 4.708 2.859 6.34 5.125 3.395 4.713 4.412 9.947 3.084 15.609-1.077 4.592-3.743 8.097-7.55 10.773-.56.393-1.22.654-1.856.924-.614.262-1.165.123-1.526-.47-.397-.653-.25-1.25.32-1.711.39-.317.832-.578 1.275-.822 3.795-2.097 5.984-5.385 6.975-9.527.279-1.162.372-2.37.528-3.41-.384-6.106-2.615-10.918-8.08-13.834a4.468 4.468 0 0 1-.734-.48c-.504-.414-.757-.927-.383-1.546zm-2.31 5.603c-.143-.938 1.032-1.584 1.97-1.014 1.122.682 2.239 1.475 3.12 2.438 2.205 2.413 3.347 5.305 3.327 9.342-.142 3.541-1.818 7.021-5.302 9.556-.427.31-.907.575-1.401.756-.558.204-1.164.16-1.486-.424-.335-.608-.312-1.258.247-1.758.294-.264.645-.474.994-.666 5.461-3.004 5.76-11.163 1.961-14.881-.735-.72-1.644-1.256-2.408-1.949-.427-.387-.944-.889-1.022-1.4zm-1.736 4.298c.273-.224.951-.213 1.308-.029 1.566.808 2.397 2.225 2.85 3.875.162.588.216 1.206.293 1.653-.16 2.207-.792 4.034-2.36 5.434-.908.812-1.797.896-2.325.259-.562-.68-.3-1.512.714-2.265 2.287-1.699 2.198-4.961-.15-6.595-.344-.238-.735-.649-.778-1.018-.05-.432.134-1.057.448-1.314z" fill="#181818"/>
    </g>
</svg>
